<?xml version="1.0" standalone="no"?>
<!DOCTYPE svg PUBLIC "-//W3C//DTD SVG 20010904//EN"
 "http://www.w3.org/TR/2001/REC-SVG-20010904/DTD/svg10.dtd">
<svg version="1.0" xmlns="http://www.w3.org/2000/svg"
 width="386.000000pt" height="386.000000pt" viewBox="0 0 386.000000 386.000000"
 preserveAspectRatio="xMidYMid meet">
<metadata>
Created by potrace 1.11, written by Peter Selinger 2001-2013
</metadata>
<g transform="translate(0.000000,386.000000) scale(0.100000,-0.100000)"
fill="#000000" stroke="none">
<path d="M0 1930 l0 -1930 1930 0 1930 0 0 1930 0 1930 -1930 0 -1930 0 0
-1930z m2138 915 c242 -58 465 -218 597 -429 110 -177 160 -399 135 -598 -29
-226 -123 -413 -286 -572 -116 -114 -231 -181 -403 -233 -79 -25 -100 -27
-251 -27 -150 0 -173 3 -253 27 -176 54 -310 138 -439 276 -107 115 -179 246
-224 407 -25 92 -30 303 -9 405 80 398 394 694 801 759 77 12 252 4 332 -15z"/>
<path d="M1590 2339 c-131 -15 -258 -48 -275 -72 -34 -48 -7 -117 46 -117 17
0 77 10 132 22 148 32 454 32 612 0 129 -25 254 -66 342 -111 72 -36 105 -39
133 -11 24 24 27 82 4 105 -44 44 -240 120 -395 153 -180 39 -416 51 -599 31z"/>
<path d="M1610 2020 c-221 -31 -283 -68 -234 -139 19 -27 41 -26 174 5 53 12
118 17 220 17 215 1 372 -34 549 -121 88 -43 94 -45 119 -31 29 16 37 37 28
74 -12 46 -226 138 -409 176 -116 23 -344 33 -447 19z"/>
<path d="M1570 1709 c-150 -25 -177 -39 -166 -83 9 -35 30 -39 120 -19 61 13
125 18 261 17 210 0 278 -14 433 -89 94 -45 115 -47 133 -14 17 33 -8 59 -104
104 -153 72 -223 87 -437 91 -102 1 -210 -1 -240 -7z"/>
</g>
</svg>
